<svg width="32" height="32" viewBox="0 0 32 32" fill="none" xmlns="http://www.w3.org/2000/svg">
<g clip-path="url(#clip0_8175_1458)">
<path d="M31.9275 9.48169H0V29.505C0.0466667 29.6734 0.0875 29.845 0.1425 30.0109C0.52 31.155 1.58417 31.9292 2.8175 31.935C4.62583 31.9434 6.435 31.9375 8.24333 31.9375C15.1567 31.9375 22.0692 31.9384 28.9817 31.9375C30.4 31.9367 31.4983 31.135 31.8367 29.8425C31.8992 29.6042 31.9333 29.3509 31.9333 29.105C31.9383 22.6392 31.9375 16.1734 31.9375 9.70752C31.9375 9.64669 31.9325 9.58502 31.9275 9.48169ZM11.08 24.1042C10.7308 24.5384 10.1692 24.5659 9.67 24.1667C8.17667 22.9734 6.685 21.78 5.19417 20.5842C4.5825 20.0934 4.58083 19.4559 5.19167 18.9659C6.69 17.7634 8.19 16.5625 9.69083 15.3642C10.1717 14.9809 10.7325 15.015 11.0775 15.44C11.4308 15.8759 11.3433 16.4375 10.8517 16.8334C9.73417 17.7309 8.61333 18.6234 7.49417 19.5184C7.39917 19.595 7.30583 19.6725 7.18083 19.7759C7.6925 20.185 8.17583 20.5734 8.65917 20.96C9.38917 21.5442 10.12 22.1259 10.8483 22.7117C11.3417 23.1092 11.4317 23.6675 11.08 24.1042ZM19.5825 13.7117C17.7467 18.0042 15.9075 22.295 14.0675 26.585C13.8667 27.0534 13.5158 27.2875 13.0875 27.2542C12.6858 27.2234 12.3167 26.9375 12.265 26.5275C12.235 26.2859 12.2875 26.0075 12.3842 25.7809C13.915 22.1817 15.4592 18.5884 17 14.9934C17.3025 14.2875 17.5992 13.5792 17.9092 12.8767C18.1042 12.4359 18.5425 12.2125 18.9733 12.31C19.4033 12.4067 19.7133 12.7967 19.7083 13.3209C19.6833 13.3992 19.6475 13.5617 19.5825 13.7117ZM26.7867 20.5517C25.265 21.7759 23.74 22.995 22.2117 24.2092C21.7525 24.575 21.1833 24.5192 20.8517 24.0975C20.5175 23.6734 20.5942 23.115 21.0492 22.7484C22.1817 21.8367 23.3192 20.93 24.4542 20.0217C24.5425 19.95 24.6292 19.8767 24.7575 19.7709C24.0133 19.1742 23.3017 18.6042 22.59 18.0342C22.0792 17.625 21.5658 17.2192 21.0583 16.8075C20.5908 16.4275 20.5133 15.8609 20.8642 15.435C21.205 15.0209 21.7625 14.98 22.2267 15.3492C23.7467 16.5592 25.2633 17.7709 26.7775 18.9875C27.3417 19.4409 27.3467 20.1017 26.7867 20.5517Z" fill="#FF782D"/>
<path d="M31.9367 3.05006C31.9333 1.32923 30.7317 0.125892 29.0125 0.125892C20.3225 0.124226 11.6317 0.124226 2.94167 0.125059C1.45083 0.125892 0.3975 0.963392 0.0525 2.41339C0.0408333 2.46339 0.0175 2.51006 0 2.55756V7.61006H31.9225C31.9283 7.49089 31.9367 7.39089 31.9367 7.29089C31.9375 5.87756 31.94 4.46339 31.9367 3.05006ZM4.73667 5.73756C4.23167 5.73589 3.80833 5.31256 3.80583 4.80673C3.80333 4.29006 4.24333 3.85756 4.76 3.86839C5.26583 3.87923 5.68167 4.30923 5.675 4.81423C5.66833 5.32006 5.24167 5.74006 4.73667 5.73756ZM8.47167 5.73756C7.96667 5.73089 7.54667 5.30423 7.54917 4.79923C7.55083 4.29339 7.97417 3.87006 8.47917 3.86839C8.985 3.86673 9.41167 4.28589 9.4175 4.79173C9.42417 5.30923 8.98917 5.74423 8.47167 5.73756ZM12.2208 5.73756C11.7158 5.73506 11.2933 5.31173 11.2917 4.80589C11.29 4.28839 11.7292 3.85673 12.2467 3.86839C12.7517 3.88006 13.1675 4.31006 13.1608 4.81506C13.1533 5.32089 12.7258 5.74006 12.2208 5.73756ZM27.0683 5.73839C26.1758 5.74006 25.2833 5.73923 24.39 5.73923C23.4975 5.73923 22.605 5.74006 21.7125 5.73839C21.0792 5.73756 20.6533 5.36506 20.6483 4.81089C20.6433 4.25673 21.0708 3.86839 21.6958 3.86839C23.4917 3.86673 25.2867 3.86673 27.0825 3.86839C27.71 3.86839 28.1358 4.25423 28.1308 4.81006C28.1267 5.36589 27.7033 5.73756 27.0683 5.73839Z" fill="#FF782D"/>
</g>
<defs>
<clipPath id="clip0_8175_1458">
<rect width="32" height="32" fill="white"/>
</clipPath>
</defs>
</svg>
