<svg width="32" height="32" viewBox="0 0 32 32" fill="none" xmlns="http://www.w3.org/2000/svg">
<g clip-path="url(#clip0_8175_119)">
<path d="M31.5532 6.84419C31.8891 7.16919 32.0607 7.53669 31.8674 7.99085C31.6807 8.42919 31.3132 8.56419 30.8549 8.56252C29.0349 8.55419 27.2149 8.55919 25.3957 8.55919H24.9982V11.8917C25.0824 11.8984 25.1716 11.9109 25.2607 11.9109C25.8849 11.9134 26.5091 11.9109 27.1324 11.9125C27.8357 11.9142 28.2007 12.2834 28.2016 12.995C28.2032 14.2742 28.2024 15.5525 28.2024 16.8317C28.2024 21.4684 28.1957 26.105 28.2107 30.7425C28.2124 31.3209 28.0557 31.75 27.5166 32H19.7166C19.7191 31.1475 19.7232 30.295 19.7232 29.4425V13.0992C19.7232 12.2425 20.0541 11.9125 20.9099 11.9117C21.6066 11.9117 22.3032 11.91 22.9999 11.9075C23.0191 11.9075 23.0382 11.8959 23.0999 11.8759V11.5292C23.0999 8.09752 23.0991 4.66669 23.1024 1.23585C23.1024 1.06085 23.1107 0.879188 23.1582 0.712521C23.2774 0.290021 23.7124 0.0141877 24.1424 0.0641877C24.5841 0.115021 24.9299 0.465854 24.9641 0.909188C24.9774 1.09252 24.9657 1.27752 24.9657 1.49585H25.3382C27.1791 1.49585 29.0199 1.50002 30.8599 1.49335C31.3057 1.49169 31.6632 1.62669 31.8566 2.04502C32.0574 2.48002 31.9099 2.84669 31.5991 3.17919C31.0091 3.80835 30.4274 4.44669 29.8224 5.10335C29.8924 5.18085 29.9566 5.25669 30.0266 5.32669C30.5341 5.83419 31.0382 6.34419 31.5532 6.84419Z" fill="#FF782D"/>
<path d="M17.8491 20.1851C17.8508 24.1234 17.8475 28.0617 17.845 32.0001H10.4825C10.4816 28.0717 10.4791 24.1442 10.4808 20.2159C10.4808 19.6284 10.8625 19.2301 11.4533 19.2267C13.2616 19.2176 15.0708 19.2176 16.8791 19.2267C17.4591 19.2301 17.8483 19.6201 17.8491 20.1851Z" fill="#FF782D"/>
<path d="M8.61082 32.0001H0.998317C0.459151 31.7734 0.278317 31.3667 0.286651 30.7892C0.310817 29.0542 0.29415 27.3192 0.295817 25.5834C0.295817 24.8126 0.64665 24.4634 1.42165 24.4634C3.43748 24.4626 5.45415 24.4626 7.46998 24.4634C8.25498 24.4634 8.60665 24.8192 8.60748 25.6092C8.60915 27.7392 8.60998 29.8701 8.61082 32.0001Z" fill="#FF782D"/>
<path d="M17.12 8.52256C16.6392 8.74923 16.115 8.54423 15.8483 8.0209C15.6417 7.61506 15.4417 7.20756 15.2175 6.7584C15.145 6.88256 15.0917 6.96423 15.0458 7.05006C11.9825 12.7392 7.51 16.9134 1.60667 19.5492C0.789167 19.9142 0.465 19.8176 0 19.0867V18.5876C0.161667 18.1967 0.476667 17.9984 0.8525 17.8317C6.325 15.3984 10.475 11.5317 13.3375 6.27756C13.395 6.17173 13.4433 6.06173 13.5267 5.89256C12.9742 6.00256 12.49 6.10673 12.0025 6.1934C11.5833 6.26756 11.1767 6.0434 11.0042 5.66507C10.7608 5.13007 11.0575 4.5009 11.6425 4.3709C12.7375 4.1284 13.835 3.89923 14.935 3.67923C15.4725 3.57173 15.8117 3.7484 16.0567 4.2384C16.5508 5.22173 17.0417 6.20673 17.5258 7.19506C17.7883 7.7309 17.6108 8.2909 17.12 8.52256Z" fill="#FF782D"/>
</g>
<defs>
<clipPath id="clip0_8175_119">
<rect width="32" height="32" fill="white"/>
</clipPath>
</defs>
</svg>
