<svg width="32" height="32" viewBox="0 0 32 32" fill="none" xmlns="http://www.w3.org/2000/svg">
<g clip-path="url(#clip0_8175_1442)">
<path d="M24.0969 23.085C23.7035 18.5375 19.5419 15.175 14.9927 15.7283C10.6135 16.2617 7.40855 20.1792 7.86272 24.5767C8.22188 28.0458 10.1435 30.3767 13.4144 31.5692C14.011 31.7875 14.661 31.86 15.2869 32H16.6594C16.811 31.9742 16.9627 31.945 17.1152 31.9225C21.4444 31.285 24.4744 27.4492 24.0969 23.085ZM17.1485 28.99C17.0727 29.0217 16.9969 29.0525 16.9077 29.0883V30.4817H15.0452V29.1017C13.5294 28.3783 12.766 27.3325 12.8419 26.0658H14.6477C14.671 26.145 14.6952 26.2108 14.7094 26.2792C14.8594 26.9858 15.4294 27.405 16.1394 27.3283C16.771 27.2608 17.2744 26.6833 17.2619 26.0408C17.2477 25.3542 16.7202 24.795 16.011 24.775C15.0685 24.7483 14.2669 24.4242 13.6335 23.7233C12.1727 22.1075 12.7327 19.5758 14.7469 18.715C14.9769 18.6167 15.0585 18.5067 15.0427 18.2617C15.0202 17.9117 15.0369 17.5583 15.0369 17.1817H16.9085C16.9085 17.57 16.9227 17.9417 16.9035 18.3117C16.8927 18.5225 16.9652 18.6125 17.1594 18.6967C18.3394 19.2075 18.9919 20.1142 19.1202 21.395C19.126 21.455 19.1202 21.5158 19.1202 21.5967H17.2902C17.2702 21.5192 17.2469 21.4417 17.2302 21.3625C17.086 20.6883 16.491 20.2592 15.8077 20.3375C15.1652 20.4108 14.6535 21.0133 14.6852 21.66C14.7194 22.3408 15.2427 22.86 15.9319 22.8958C17.5194 22.9775 18.6844 23.8817 19.0352 25.3042C19.4119 26.8342 18.621 28.3808 17.1485 28.99Z" fill="#FF782D"/>
<path d="M8.3725 16.9951C8.37083 17.1634 8.29833 17.3609 8.19417 17.4934C7.47917 18.3976 6.90833 19.3793 6.52333 20.4676C6.47333 20.6076 6.43833 20.7251 6.2375 20.7243C4.15833 20.7134 2.07917 20.7126 0 20.7084V18.8368H3.60833V12.4801H8.38083V12.8159C8.38083 14.2093 8.38667 15.6018 8.3725 16.9951Z" fill="#FF782D"/>
<path d="M31.9267 18.8475V20.7025C31.8251 20.7084 31.7251 20.7192 31.6259 20.7192C29.6926 20.72 27.7592 20.715 25.8267 20.7259C25.5909 20.7267 25.4817 20.66 25.4034 20.4342C25.0309 19.3534 24.4576 18.3842 23.7476 17.49C23.6484 17.3642 23.5726 17.1784 23.5726 17.0209C23.5634 11.4717 23.5651 5.92255 23.5651 0.373381V0.0692139H28.3284V18.8475H31.9267Z" fill="#FF782D"/>
<path d="M21.6668 4.20422V15.4826C20.9159 15.1259 20.1768 14.7067 19.3901 14.4201C18.6059 14.1342 17.7726 13.9817 16.9268 13.7626V4.20422H21.6668Z" fill="#FF782D"/>
<path d="M15.0123 8.34924V13.7634C14.1806 13.9801 13.3406 14.1359 12.5481 14.4234C11.7673 14.7076 11.0339 15.1251 10.2739 15.4867V8.34924H15.0123Z" fill="#FF782D"/>
</g>
<defs>
<clipPath id="clip0_8175_1442">
<rect width="32" height="32" fill="white"/>
</clipPath>
</defs>
</svg>
