<svg width="32" height="32" viewBox="0 0 32 32" fill="none" xmlns="http://www.w3.org/2000/svg">
<g clip-path="url(#clip0_8175_1666)">
<path d="M14.5342 2.2257C14.535 2.73486 14.5342 3.24403 14.5342 3.75403C14.5333 4.46653 14.3133 4.74736 13.6292 4.9257C12.0325 5.34153 10.5508 6.00403 9.28083 7.0707C8.73083 7.53236 8.25 8.07653 7.77667 8.63486C8.42167 8.18653 9.10167 7.90653 9.88917 7.9557C10.6867 8.00486 11.3525 8.3282 11.87 8.9357C12.6833 9.8907 12.7633 11.2515 12.0775 12.2974C11.4042 13.3249 10.1058 13.7982 8.93333 13.439C8.21583 13.2199 7.6675 12.7815 7.295 12.1307C6.93 11.4907 6.85083 10.8024 7.0025 10.0799C6.96583 10.0715 6.92917 10.064 6.89333 10.0565C6.715 10.6332 6.5 11.2024 6.36667 11.789C5.96833 13.5474 6.03083 15.2932 6.5725 17.019C6.805 17.7574 6.67583 18.0707 6.005 18.4607C5.55583 18.7215 5.1075 18.9832 4.65417 19.2365C4.04333 19.5782 3.47167 19.3699 3.22417 18.7132C2.23167 16.074 2.115 13.389 2.81333 10.6632C2.83917 10.5649 2.8625 10.4657 2.9 10.3132C2.70917 10.3132 2.54917 10.3107 2.38917 10.314C2.02583 10.3207 1.66 10.3099 1.29917 10.344C0.711667 10.399 0.265 10.2165 0 9.6682V9.16986C0.938333 7.31986 1.8775 5.4707 2.81583 3.62153C2.85333 3.54736 2.8925 3.47403 2.93333 3.40153C3.30833 2.7382 4.07833 2.67403 4.55083 3.27736C4.96083 3.8007 5.35167 4.33903 5.75167 4.86986C5.81333 4.9507 5.87917 5.02736 5.95167 5.11736C6.85 4.16653 7.84083 3.3682 8.95833 2.7282C10.315 1.9507 11.7658 1.43986 13.3075 1.18903C14.0825 1.06236 14.5317 1.44736 14.5342 2.2257Z" fill="#FF782D"/>
<path d="M30.9408 10.3409C30.4217 10.345 29.9017 10.3217 29.3825 10.3117C29.2817 10.3092 29.1808 10.3109 29.0475 10.3109C29.1458 10.76 29.2458 11.1709 29.3258 11.585C29.7875 13.9892 29.585 16.3409 28.745 18.6384C28.4708 19.3884 27.9075 19.5959 27.2175 19.2017C26.785 18.9542 26.355 18.7025 25.9225 18.4542C25.27 18.0784 25.1333 17.7525 25.3583 17.0367C25.9575 15.13 25.9733 13.2142 25.4483 11.2934C25.335 10.8792 25.1683 10.4792 24.9825 10.0784C25.0967 10.8717 24.9908 11.6117 24.5525 12.2809C24.1083 12.9575 23.4792 13.3717 22.6825 13.5175C21.4592 13.7417 20.2058 13.0884 19.6667 11.9542C19.1225 10.8092 19.4225 9.43505 20.3883 8.61171C21.2442 7.88255 22.7575 7.56171 24.1067 8.66838C24.1283 8.65005 24.1492 8.63171 24.1708 8.61421C23.8783 8.28505 23.6017 7.94005 23.2892 7.63171C21.8983 6.26255 20.21 5.42838 18.3417 4.93255C17.6125 4.73921 17.4042 4.48088 17.4033 3.72588V2.26005C17.405 1.43921 17.8508 1.05421 18.6583 1.19255C21.4042 1.66171 23.7683 2.87171 25.73 4.85588C25.81 4.93671 25.8833 5.02505 25.9833 5.13671C26.3508 4.64921 26.6992 4.18755 27.0475 3.72505C27.16 3.57588 27.2683 3.42338 27.385 3.27755C27.8633 2.67921 28.6508 2.72671 29 3.40338C29.9517 5.24838 30.89 7.10005 31.8167 8.95755C32.1608 9.64755 31.715 10.3342 30.9408 10.3409Z" fill="#FF782D"/>
<path d="M26.0665 23.325C24.249 25.5075 21.979 26.98 19.2224 27.6892C19.1624 27.7042 19.1015 27.72 19.0432 27.7392C19.0249 27.745 19.0115 27.7642 18.9782 27.7917C19.1699 28.3617 19.364 28.94 19.5565 29.5175C19.8365 30.3559 19.434 30.9109 18.5424 30.9117C16.8274 30.9134 15.1124 30.9134 13.3974 30.9117C12.4915 30.9109 12.1015 30.3575 12.3907 29.4917C12.5807 28.9234 12.7707 28.3542 12.9624 27.7792C12.4249 27.605 11.899 27.4525 11.3849 27.265C9.17488 26.4584 7.34821 25.1125 5.85488 23.3034C5.40154 22.7534 5.50821 22.1425 6.12404 21.7817C6.59071 21.5092 7.05821 21.24 7.52738 20.9725C8.10404 20.6417 8.48738 20.6967 8.93654 21.1884C10.1999 22.5692 11.7082 23.5625 13.5274 24.0425C14.094 24.1917 14.6799 24.2667 15.2624 24.3442C13.5499 23.4509 12.8915 22.3434 13.2399 20.895C13.5432 19.6317 14.6932 18.74 15.999 18.7567C17.2999 18.7725 18.4232 19.6725 18.7032 20.925C19.0299 22.3842 18.3665 23.4884 16.6149 24.335C17.544 24.28 18.389 24.0984 19.209 23.7942C20.6807 23.2484 21.9182 22.3609 22.9765 21.2117C23.459 20.6884 23.8232 20.6342 24.4332 20.9859C24.8832 21.245 25.334 21.5017 25.7815 21.7642C26.4349 22.1475 26.5465 22.7484 26.0665 23.325Z" fill="#FF782D"/>
</g>
<defs>
<clipPath id="clip0_8175_1666">
<rect width="32" height="32" fill="white"/>
</clipPath>
</defs>
</svg>
