<svg width="32" height="32" viewBox="0 0 32 32" fill="none" xmlns="http://www.w3.org/2000/svg">
<path d="M27.9384 5.96589C27.9367 5.72922 27.8992 5.48839 27.8417 5.25839C27.4592 3.71172 26.1817 2.72922 24.5292 2.72172C22.5434 2.71339 20.5584 2.72005 18.5726 2.72005C14.1959 2.72005 9.82006 2.71589 5.4434 2.72172C3.43673 2.72422 1.9934 4.14339 1.99173 6.11505C1.98673 12.0626 1.9884 18.0101 1.99423 23.9576C1.99423 24.2351 2.02423 24.5201 2.09006 24.7892C2.45923 26.3109 3.73173 27.3267 5.3334 27.3326C9.1484 27.3476 12.9634 27.3376 16.7792 27.3376C16.8401 27.3376 16.9017 27.3284 17.0117 27.3201C17.0117 27.2151 17.0176 27.1334 17.0109 27.0534C16.9276 26.0192 17.2284 25.0992 17.7542 24.2117C19.0026 22.1026 20.2059 19.9667 21.4434 17.8509C21.7609 17.3067 22.0751 16.7784 21.9609 16.1126C21.9584 16.0959 21.9751 16.0759 21.9967 16.0234C22.4942 16.1851 22.6301 15.7892 22.8151 15.4617C22.8609 15.3809 22.9076 15.3001 22.9542 15.2184C23.1742 14.8351 23.3942 14.4526 23.6434 14.0201H21.9792V10.0517H25.9367C25.9451 10.2134 25.9517 10.3609 25.9584 10.4901C26.2892 10.3684 26.5901 10.2184 26.9084 10.1517C27.2367 10.0834 27.5809 10.0976 27.9351 10.0742C27.9384 10.0276 27.9442 9.97755 27.9442 9.92755C27.9442 8.60672 27.9476 7.28589 27.9384 5.96589ZM7.95506 25.3209C6.98506 25.3209 6.0209 25.3534 5.0609 25.3084C4.51923 25.2826 4.03756 24.7542 4.0059 24.1934C3.9659 23.4817 3.9959 22.7651 3.9959 22.0234H7.95506V25.3209ZM7.95673 20.0009H4.00423V16.0426H7.95673V20.0009ZM7.9634 14.0059H4.0084V10.0509H7.9634V14.0059ZM7.9634 8.02255H3.98673V7.36089C3.98673 6.91422 3.97923 6.46755 3.98923 6.02089C4.00256 5.38755 4.4584 4.78339 5.0584 4.75089C6.01923 4.69922 6.98423 4.73672 7.9634 4.73672V8.02255ZM18.5167 16.5851C17.1842 17.3492 15.8559 18.1192 14.5251 18.8876C14.1659 19.0951 13.8067 19.3042 13.4467 19.5101C12.3542 20.1342 11.3026 19.5317 11.2984 18.2784C11.2951 17.3017 11.2976 16.3251 11.2976 15.3476C11.2976 14.3817 11.2959 13.4151 11.2984 12.4484C11.3017 11.1892 12.3534 10.5851 13.4434 11.2134C15.1426 12.1934 16.8409 13.1759 18.5409 14.1542C18.9967 14.4167 19.2767 14.7884 19.2876 15.3292C19.2984 15.9101 19.0059 16.3042 18.5167 16.5851ZM25.9484 8.01422H21.9667V4.73922C22.0567 4.73172 22.1451 4.71755 22.2334 4.71755C22.9917 4.71589 23.7501 4.71339 24.5084 4.71755C25.4092 4.72255 25.9442 5.25672 25.9476 6.15089C25.9501 6.76422 25.9484 7.37672 25.9484 8.01422Z" fill="#FF782D"/>
<path d="M25.0833 14.1951C23.0475 17.7226 21.0225 21.2309 18.9858 24.7592C20.1558 25.4342 21.2917 26.0901 22.4458 26.7559C24.4867 23.2209 26.5117 19.7126 28.5433 16.1917C27.37 15.5142 26.24 14.8626 25.0833 14.1951ZM25.235 19.2301C25.0433 19.5409 24.6608 19.6001 24.3558 19.4159C24.0675 19.2409 23.9375 18.8826 24.1033 18.5759C24.4383 17.9551 24.7892 17.3417 25.1667 16.7459C25.2642 16.5926 25.4842 16.5159 25.6483 16.4042C26.1758 16.4542 26.5217 16.9551 26.2925 17.3976C25.9675 18.0234 25.6058 18.6309 25.235 19.2301Z" fill="#FF782D"/>
<path d="M27.9442 23.9117C27.9375 25.885 26.53 27.3084 24.56 27.3375C24.2809 27.3409 24.0017 27.3375 23.645 27.3375C24.0392 26.655 24.3984 26.0267 24.7675 25.405C24.8025 25.3467 24.9 25.3167 24.9742 25.29C25.6184 25.0634 25.9625 24.6134 25.94 23.9309C25.9267 23.5184 26.0334 23.1717 26.2442 22.8217C26.8042 21.8909 27.3367 20.9425 27.9217 19.9292C27.9325 20.095 27.9442 20.1809 27.9442 20.2667C27.945 21.4817 27.9475 22.6967 27.9442 23.9117Z" fill="#FF782D"/>
<path d="M29.7957 14.01C29.6232 14.3508 29.4182 14.675 29.2099 15.0383C28.0407 14.3642 26.9041 13.7083 25.7466 13.0408C25.9707 12.6608 26.1599 12.2908 26.3941 11.9533C26.7641 11.4208 27.4741 11.2567 28.0583 11.5617C28.4899 11.7867 28.9124 12.0308 29.3233 12.2917C29.9158 12.6667 30.1124 13.3858 29.7957 14.01Z" fill="#FF782D"/>
<path d="M21.6967 27.8634C21.5009 28.0067 21.3534 28.1376 21.1859 28.2334C20.5917 28.5734 19.9951 28.9092 19.3917 29.2326C18.9392 29.4759 18.4209 29.2634 18.3926 28.7834C18.3434 27.9351 18.3634 27.0826 18.3584 26.2309C18.3584 26.1617 18.3926 26.0909 18.4234 25.9734C19.5234 26.6084 20.5876 27.2234 21.6967 27.8634Z" fill="#FF782D"/>
</svg>
