<svg width="32" height="32" viewBox="0 0 32 32" fill="none" xmlns="http://www.w3.org/2000/svg">
<g clip-path="url(#clip0_8175_1465)">
<path d="M31.9242 21.3442C31.7667 22.6367 30.865 23.635 29.5975 23.9183C27.87 24.305 26.1425 22.9892 26.0708 21.2183C26.0608 20.98 25.9817 20.8817 25.7658 20.8C24.2233 20.2175 22.6858 19.62 21.1183 19.0158C20.615 19.845 19.9683 20.535 19.1367 21.0617C19.1675 21.1517 19.1883 21.23 19.22 21.3042C19.8617 22.8242 20.5067 24.3425 21.1458 25.8633C21.215 26.0275 21.28 26.1267 21.4967 26.1292C23.0208 26.15 24.2667 27.2733 24.3983 28.725C24.5408 30.3017 23.5758 31.6142 22.0333 31.9433C21.9858 31.9542 21.9408 31.9808 21.895 32H21.0217C20.9658 31.9783 20.9108 31.9492 20.8533 31.9367C19.3175 31.59 18.3317 30.1283 18.5775 28.5667C18.685 27.8808 19.0242 27.325 19.5258 26.85C18.835 25.2167 18.1508 23.5917 17.4525 21.9725C17.4233 21.905 17.2542 21.8458 17.165 21.8625C16.2517 22.0317 15.3358 22.0533 14.4517 21.7667C13.7683 21.5458 13.1183 21.2233 12.45 20.945C11.3567 22.0392 10.22 23.1767 9.075 24.3217C9.10417 24.3717 9.14583 24.4425 9.18833 24.5133C10.7567 27.1142 9.5825 30.5675 6.74417 31.6617C6.3425 31.8167 5.90833 31.8892 5.48917 32H4.42917C4.37 31.9817 4.3125 31.9575 4.2525 31.9467C2.135 31.5708 0.7775 30.3425 0.16 28.29C0.095 28.075 0.0525 27.8525 0 27.6333V26.5108C0.106667 26.1 0.1775 25.6758 0.326667 25.2817C1.4125 22.4142 4.89583 21.2317 7.515 22.8292C7.57667 22.8667 7.64 22.9017 7.68 22.925C8.82667 21.7792 9.96417 20.6425 11.1233 19.4842C10.4633 18.5308 10.0725 17.455 10.0292 16.2608C9.98667 15.0775 10.2725 13.9783 10.8858 12.9433C10.0033 12.1933 9.135 11.455 8.27167 10.7217C6.16583 12.1242 3.95167 11.3133 2.88583 10.0025C1.675 8.51415 1.7125 6.36249 2.97417 4.92999C4.2625 3.46665 6.375 3.14249 8.0125 4.14999C9.4825 5.05332 10.49 7.11082 9.485 9.28332C9.9125 9.64749 10.3458 10.0175 10.7792 10.3858C11.2142 10.7558 11.6483 11.1242 12.0808 11.4917C14.4717 9.71415 16.9142 9.61082 19.4683 11.1842C19.52 11.1367 19.5967 11.0717 19.6675 11.0017C21.2483 9.42165 22.8258 7.83915 24.4125 6.26499C24.5725 6.10582 24.5817 5.99665 24.4833 5.79082C23.7533 4.26665 23.9042 2.80499 24.9658 1.50332C26.0175 0.213322 27.4283 -0.225845 29.0233 0.212488C30.6275 0.653322 31.6158 1.75749 31.8775 3.41249C32.125 4.97665 31.575 6.27416 30.2908 7.19415C29.0125 8.11082 27.6225 8.20332 26.1958 7.51582C26.0525 7.44749 25.95 7.37082 25.7925 7.52999C24.1683 9.16916 22.5333 10.7975 20.9025 12.43C20.8675 12.4658 20.84 12.5092 20.8017 12.56C21.7933 13.9833 22.1083 15.55 21.795 17.2633C22.3233 17.4658 22.8358 17.6608 23.3467 17.8583C24.4025 18.265 25.4583 18.6692 26.5108 19.0833C26.67 19.1458 26.76 19.1267 26.8833 19.0017C27.82 18.0533 29.1092 17.8342 30.2883 18.4075C31.41 18.9525 32.07 20.1383 31.9242 21.3442Z" fill="#FF782D"/>
</g>
<defs>
<clipPath id="clip0_8175_1465">
<rect width="32" height="32" fill="white"/>
</clipPath>
</defs>
</svg>
