<svg width="32" height="32" viewBox="0 0 32 32" fill="none" xmlns="http://www.w3.org/2000/svg">
<path d="M1.6642 10.3859V10.7142C1.6642 15.7775 1.66336 20.8409 1.66586 25.9042C1.66586 26.1534 1.66753 26.4059 1.7092 26.65C2.0792 28.8525 3.81753 30.3259 6.06503 30.33C10.0667 30.3367 14.0692 30.3317 18.0717 30.3317H18.4084C18.35 30.0975 18.2925 29.9192 18.2642 29.7367C18.0342 28.2692 17.8267 26.7984 17.5784 25.3342C17.4567 24.6209 17.5334 23.9684 17.845 23.3084C19.2909 20.2492 20.7125 17.1775 22.1442 14.1117C23.0984 12.0684 25.18 11.3067 27.2242 12.2575C28.2367 12.7275 29.2425 13.2117 30.2409 13.685V10.3859H1.6642ZM13.2367 26.3367C12.1459 26.3425 11.0559 26.3384 9.96503 26.3384C8.8642 26.3375 7.76336 26.3384 6.66253 26.3375C6.2617 26.3375 5.9592 26.1567 5.77253 25.81C5.5917 25.4742 5.61003 25.1267 5.81503 24.8034C6.01503 24.4884 6.32003 24.3442 6.68586 24.3442C8.8767 24.3409 11.0684 24.3375 13.26 24.345C13.8734 24.3475 14.3 24.7834 14.295 25.3559C14.29 25.93 13.8625 26.3334 13.2367 26.3367ZM16.1759 20.9934C16.0559 21.02 15.9284 21.0184 15.805 21.0184C14.2984 21.02 12.7925 21.0192 11.2867 21.0192C9.76003 21.0192 8.23336 21.0225 6.7067 21.0175C5.9892 21.015 5.50503 20.4 5.69003 19.7434C5.81253 19.3084 6.20253 19.025 6.70253 19.0234C7.93836 19.02 9.17503 19.0225 10.4109 19.0225C12.2492 19.0225 14.0875 19.02 15.9259 19.0242C16.4759 19.025 16.9017 19.3992 16.9592 19.91C17.015 20.4109 16.6784 20.8834 16.1759 20.9934ZM16.9384 14.9067C16.8417 15.3142 16.5825 15.5809 16.1634 15.6659C16.0325 15.6925 15.8959 15.6984 15.7617 15.6984C14.2759 15.7009 12.7909 15.7 11.3059 15.7C9.79003 15.7 8.27336 15.7025 6.75753 15.6984C6.08253 15.6959 5.64086 15.2684 5.66003 14.655C5.67586 14.1509 6.05586 13.7509 6.5592 13.71C6.6417 13.7034 6.72503 13.7034 6.80836 13.7034C9.80919 13.7034 12.8109 13.6975 15.8125 13.7134C16.0742 13.7142 16.3717 13.8009 16.59 13.9434C16.9167 14.1567 17.03 14.5184 16.9384 14.9067Z" fill="#FF782D"/>
<path d="M30.2609 6.06587C30.2425 5.64337 30.1992 5.21087 30.0817 4.80754C29.5325 2.91421 27.8725 1.72421 25.8142 1.72337C19.2542 1.72171 12.6942 1.72254 6.13338 1.72337C6.00921 1.72337 5.88421 1.72421 5.75921 1.72921C3.79421 1.80504 2.03338 3.29754 1.75588 5.24671C1.62004 6.19587 1.68754 7.17504 1.66588 8.14004C1.66421 8.20837 1.68254 8.27754 1.69254 8.35587H30.2542C30.2592 8.25837 30.2675 8.16004 30.2684 8.06171C30.2692 7.39587 30.2892 6.73004 30.2609 6.06587ZM7.30838 6.36921C6.76421 6.36671 6.31588 5.92004 6.31421 5.37921C6.31338 4.82921 6.79004 4.36171 7.33588 4.37754C7.88088 4.39254 8.31171 4.84171 8.30588 5.39087C8.30004 5.94254 7.86338 6.37171 7.30838 6.36921ZM10.6525 6.36921C10.0984 6.37337 9.65921 5.94504 9.65254 5.39421C9.64504 4.83171 10.0942 4.37254 10.6484 4.37671C11.1825 4.38087 11.6417 4.84171 11.6434 5.37587C11.645 5.91671 11.1984 6.36504 10.6525 6.36921ZM13.98 6.36837C13.4317 6.37254 12.9809 5.93754 12.9725 5.39504C12.9642 4.83921 13.4217 4.37421 13.9742 4.37754C14.5125 4.38087 14.9659 4.83587 14.9675 5.37421C14.9692 5.91837 14.5259 6.36421 13.98 6.36837Z" fill="#FF782D"/>
<path d="M28.5076 20.9308C28.321 21.3308 28.1435 21.7142 27.9651 22.0967C27.1893 23.7617 26.4101 25.4258 25.6401 27.0933C25.5001 27.3983 25.3001 27.6258 25.0118 27.7992C23.7393 28.5642 22.4735 29.3408 21.2035 30.11C20.4076 30.5925 19.6785 30.2517 19.536 29.3308C19.3043 27.8325 19.071 26.3342 18.8568 24.8333C18.826 24.6183 18.846 24.3625 18.9351 24.1675C19.891 22.0825 20.866 20.0067 21.836 17.9283C21.8443 17.9108 21.8618 17.8967 21.9018 17.8508C24.1018 18.8767 26.291 19.8975 28.5076 20.9308Z" fill="#FF782D"/>
<path d="M30.1609 17.3092C29.9493 17.9225 29.6401 18.5025 29.3626 19.1259C27.1368 18.0884 24.9434 17.065 22.7151 16.0259C22.9893 15.4484 23.2218 14.9042 23.5001 14.3834C24.0501 13.3559 25.2793 12.8934 26.3559 13.3409C27.2843 13.7267 28.1976 14.1525 29.0901 14.6134C30.0476 15.1084 30.5143 16.285 30.1609 17.3092Z" fill="#FF782D"/>
<path d="M30.2667 25.9633C30.2542 28.1867 28.7817 29.9433 26.5842 30.2742C25.8308 30.3875 25.05 30.3192 24.2808 30.3308C24.0325 30.335 23.7842 30.3317 23.535 30.3317C23.5283 30.3092 23.5208 30.2867 23.5142 30.2642C24.2208 29.8342 24.9192 29.39 25.6358 28.9775C26.2092 28.6483 26.6042 28.19 26.88 27.5908C27.9333 25.2992 29.0058 23.0158 30.0717 20.73C30.1133 20.6392 30.1617 20.5508 30.2433 20.3892C30.2558 20.5408 30.2675 20.6167 30.2675 20.6917C30.2692 22.4492 30.2767 24.2058 30.2667 25.9633Z" fill="#FF782D"/>
</svg>
